SplineFontDB: 3.2
FontName: Untitled1
FullName: Untitled1
FamilyName: Untitled1
Weight: Regular
Copyright: Copyright (c) 2021, Shifat
UComments: "2021-1-19: Created with FontForge (http://fontforge.org)"
Version: 001.000
ItalicAngle: 0
UnderlinePosition: -100
UnderlineWidth: 50
Ascent: 800
Descent: 200
InvalidEm: 0
LayerCount: 2
Layer: 0 0 "Back" 1
Layer: 1 0 "Fore" 0
XUID: [1021 752 534662743 13302]
OS2Version: 0
OS2_WeightWidthSlopeOnly: 0
OS2_UseTypoMetrics: 1
CreationTime: 1611043992
ModificationTime: 1611053872
OS2TypoAscent: 0
OS2TypoAOffset: 1
OS2TypoDescent: 0
OS2TypoDOffset: 1
OS2TypoLinegap: 0
OS2WinAscent: 0
OS2WinAOffset: 1
OS2WinDescent: 0
OS2WinDOffset: 1
HheadAscent: 0
HheadAOffset: 1
HheadDescent: 0
HheadDOffset: 1
OS2Vendor: 'PfEd'
Lookup: 4 0 1 "'liga' Standard Ligatures in Latin lookup 0" { "'liga' Standard Ligatures in Latin lookup 0-1"  } ['liga' ('DFLT' <'dflt' > 'latn' <'dflt' > ) ]
Lookup: 258 0 0 "'kern' Horizontal Kerning in Latin lookup 1" { "'kern' Horizontal Kerning in Latin lookup 1-1" [150,15,6] } ['kern' ('DFLT' <'dflt' > 'latn' <'dflt' > ) ]
Lookup: 258 0 0 "'kern' Horizontal Kerning in Latin lookup 0" { "'kern' Horizontal Kerning in Latin lookup 0-1" [150,15,6] } ['kern' ('DFLT' <'dflt' > 'latn' <'dflt' > ) ]
MarkAttachClasses: 1
DEI: 91125
Encoding: Mac
UnicodeInterp: none
NameList: AGL For New Fonts
DisplaySize: -48
AntiAlias: 1
FitToEm: 0
WinInfo: 27 27 9
BeginPrivate: 0
EndPrivate
Grid
-152 129 m 25
 1180 135 l 1025
-149 447 m 1
 1174 435 l 1025
EndSplineSet
BeginChars: 258 68

StartChar: A
Encoding: 65 65 0
Width: 544
Flags: HW
LayerCount: 2
Fore
SplineSet
176 517 m 1
 338 513 l 1
 316 671 l 1
 194 673 l 1
 194.771484375 681.5390625 180.703875528 569.036245218 176 517 c 1
16 18 m 1
 114 733 l 5
 376 735 l 1
 542 22 l 1
 450 20 l 1
 346 450 l 1
 166 448 l 1
 108 34 l 1
 16 18 l 1
EndSplineSet
EndChar

StartChar: B
Encoding: 66 66 1
Width: 338
Flags: HW
LayerCount: 2
Fore
SplineSet
64 103 m 1
 210 90 l 1
 276 180 l 1
 252 276 l 1
 80 339 l 1
 64 103 l 1
81 459 m 1
 255 564 l 1
 260 653 l 1
 183 692 l 1
 84 707 l 1
 81 459 l 1
16 65 m 1
 24 753 l 1
 218 737 l 1
 302 687 l 1
 298 539 l 1
 105 399 l 1
 298 307 l 1
 330 167 l 1
 238 51 l 1
 16 65 l 1
EndSplineSet
EndChar

StartChar: C
Encoding: 67 67 2
Width: 554
Flags: HW
LayerCount: 2
Fore
SplineSet
480 568 m 1
 373 762 l 1
 157 741 l 1
 13 489 l 1
 18 258 l 1
 190 136 l 1
 408 84 l 1
 550 178 l 1
 502 236 l 1
 404 162 l 1
 222 208 l 1
 100 300 l 1
 106 498 l 1
 202 663 l 1
 349 672 l 1
 384 536 l 1
 480 568 l 1
EndSplineSet
EndChar

StartChar: D
Encoding: 68 68 3
Width: 589
Flags: HW
LayerCount: 2
Fore
SplineSet
121 111 m 1
 376 120 l 25
 496 306 l 1
 481 501 l 1
 325 657 l 1
 127 672 l 1
 121 111 l 1
28 36 m 1
 40 762 l 1
 385 735 l 1
 583 531 l 1
 580 279 l 25
 433 39 l 1
 28 36 l 1
EndSplineSet
EndChar

StartChar: E
Encoding: 69 69 4
Width: 421
Flags: HW
LayerCount: 2
Fore
SplineSet
382 756 m 1
 7 759 l 1
 7 45 l 1
 394 30 l 1
 388 135 l 1
 106 138 l 1
 103 354 l 1
 271 357 l 1
 274 465 l 1
 229.219726562 470.268554688 96.6640625 463.8046875 112 462 c 1
 115 660 l 1
 373 645 l 1
 382 756 l 1
EndSplineSet
EndChar

StartChar: F
Encoding: 70 70 5
Width: 403
Flags: HW
LayerCount: 2
Fore
SplineSet
10 57 m 25
 13 759 l 1
 394 759 l 1
 388 627 l 1
 112 624 l 1
 106 456 l 1
 238 456 l 1
 250 360 l 1
 100 366 l 1
 94 60 l 25
 10 57 l 25
EndSplineSet
EndChar

StartChar: G
Encoding: 71 71 6
Width: 469
Flags: HW
LayerCount: 2
Fore
SplineSet
456 673 m 1
 330 709 l 1
 120 627 l 1
 122 615 2.6025390625 369.85546875 3 372 c 1
 48 199 l 1
 166 73 l 1
 334 31 l 1
 397.291015625 74.8623046875 467.388671875 141.813476562 459 136 c 1
 458 301 l 1
 469.469726562 295.884765625 344.369140625 336.659179688 301 356 c 1
 279 180 l 1
 359 182 l 1
 359 280 l 1
 404 261 l 1
 408 187 l 1
 323 100 l 1
 204 137 l 1
 121 228 l 1
 85 382 l 1
 188 565 l 1
 225.960250014 584.71595351 322.36527029 634.785032256 317 632 c 1
 448 597 l 1
 456 673 l 1
EndSplineSet
EndChar

StartChar: H
Encoding: 72 72 7
Width: 364
Flags: HW
LayerCount: 2
Fore
SplineSet
106 660 m 1
 -2 663 l 1
 1 66 l 1
 100 69 l 1
 97 354 l 1
 229 348 l 1
 223 54 l 1
 337 66 l 1
 325 660 l 1
 226 654 l 1
 229 432 l 1
 103 444 l 1
 106 660 l 1
EndSplineSet
EndChar

StartChar: I
Encoding: 73 73 8
Width: 580
Flags: W
HStem: 33 126<28 250 382 442.667> 42 123<144.333 250 382 562> 585 117<34 241 358 538>
VStem: 241 117<462.5 579>
LayerCount: 2
Fore
SplineSet
34 585 m 1xb0
 25 708 l 1
 538 702 l 1
 547 585 l 1
 358 585 l 1
 382 165 l 1
 562 168 l 1
 562 42 l 1x70
 25 33 l 1
 28 159 l 1
 250 162 l 1
 241 579 l 1
 34 585 l 1xb0
EndSplineSet
EndChar

StartChar: J
Encoding: 74 74 9
Width: 406
Flags: HW
LayerCount: 2
Fore
SplineSet
-8 630 m 1
 -8 702 l 1
 385 690 l 1
 388 189 l 1
 286 75 l 1
 67 90 l 1
 25 240 l 1
 124 333 l 1
 172 270 l 1
 103 219 l 1
 124 138 l 1
 238 132 l 1
 328 210 l 1
 325 624 l 1
 -8 630 l 1
EndSplineSet
EndChar

StartChar: K
Encoding: 75 75 10
Width: 487
Flags: HW
LayerCount: 2
Fore
SplineSet
4 765 m 25
 127 771 l 1
 133 447 l 1
 325 771 l 1
 445 720 l 1
 214 381 l 1
 487 30 l 1
 316 21 l 1
 133 303 l 1
 139 18 l 1
 13 21 l 1
 4 765 l 25
EndSplineSet
EndChar

StartChar: L
Encoding: 76 76 11
Width: 529
Flags: HW
LayerCount: 2
Fore
SplineSet
142 759 m 1
 10 756 l 25
 25 84 l 1
 526 81 l 1
 472 225 l 1
 148 204 l 1
 142 759 l 1
EndSplineSet
EndChar

StartChar: M
Encoding: 77 77 12
Width: 508
Flags: HW
LayerCount: 2
Fore
SplineSet
-14 57 m 1
 -2 732 l 1
 115 729 l 1
 235 564 l 1
 227.623046875 549.88671875 323.45703125 651.440429688 364 729 c 1
 460 726 l 1
 484 66 l 1
 379 54 l 1
 394 621 l 1
 232 420 l 1
 73 621 l 1
 91 57 l 1
 -14 57 l 1
EndSplineSet
EndChar

StartChar: N
Encoding: 78 78 13
Width: 445
Flags: HW
LayerCount: 2
Fore
SplineSet
13 42 m 1
 13 714 l 1
 151 720 l 1
 301 198 l 1
 343 729 l 1
 439 735 l 1
 385 39 l 1
 271 42 l 1
 106 612 l 1
 103 30 l 1
 13 42 l 1
EndSplineSet
EndChar

StartChar: O
Encoding: 79 79 14
Width: 586
Flags: W
HStem: 63 72<239.667 403> 69 75<193 356.333>
VStem: 13 93<388.4 510> 28 72<246 367.6> 493 66<228 398> 502 69<346 495>
LayerCount: 2
Fore
SplineSet
202 603 m 1x60
 403 606 l 1
 502 495 l 1x64
 493 228 l 1
 403 135 l 1x88
 193 144 l 1
 100 246 l 1x58
 106 510 l 1
 202 603 l 1x60
163 675 m 1
 13 534 l 1xa4
 28 222 l 1
 136 69 l 1x50
 439 63 l 1
 559 216 l 1x98
 571 528 l 1
 585.8203125 506.549804688 463.389648438 626.672851562 430 675 c 1
 163 675 l 1
EndSplineSet
EndChar

StartChar: P
Encoding: 80 80 15
Width: 523
Flags: HW
LayerCount: 2
Fore
SplineSet
130 420 m 1
 79.7548828125 423.9765625 256.8125 406.856445312 328 432 c 0
 359.015625 442.955078125 384 473 373 504 c 24
 355 556 323 582 271 600 c 24
 219 618 130 588 130 588 c 1
 130 420 l 1
7 42 m 1
 13 681 l 1
 13 681 214.048828125 711.198242188 337 681 c 0
 394 667 435 638 466 588 c 24
 497 538 506.122070312 488.965820312 490 432 c 0
 475 379 431.87890625 360.422851562 379 345 c 0
 307 324 139 339 139 339 c 1
 148 39 l 1
 7 42 l 1
EndSplineSet
EndChar

StartChar: Q
Encoding: 81 81 16
Width: 601
Flags: HW
LayerCount: 2
Fore
SplineSet
439 492 m 1
 448 255 l 1
 382 321 l 1
 328 243 l 1
 388 183 l 1
 226 72 l 1
 64 216 l 1
 91 483 l 1
 259 627 l 1
 439 492 l 1
280 717 m 1
 10 546 l 1
 -20 159 l 1
 78.9189453125 101.596679688 132.838867188 61.4580078125 241 0 c 1
 442 150 l 1
 523 66 l 1
 586 153 l 1
 505 222 l 1
 511 531 l 1
 280 717 l 1
EndSplineSet
EndChar

StartChar: R
Encoding: 82 82 17
Width: 415
Flags: HW
LayerCount: 2
Fore
SplineSet
79 444 m 1
 283 459 l 1
 352 540 l 25
 265 654 l 1
 94 654 l 1
 79 444 l 1
-11 15 m 1
 31 735 l 1
 298 705 l 1
 415 528 l 1
 316 396 l 1
 172 372 l 1
 418 93 l 1
 304 15 l 1
 88 360 l 1
 79 30 l 1
 -11 15 l 1
EndSplineSet
EndChar

StartChar: S
Encoding: 83 83 18
Width: 544
Flags: HW
LayerCount: 2
Fore
SplineSet
556 621 m 1
 166 792 l 1
 73 471 l 1
 56.671875 477.619140625 308.112304688 375.684570312 406 336 c 1
 382 213 l 1
 58 192 l 17
 -2 81 l 1
 445 129 l 1
 490 393 l 1
 196 510 l 1
 238 684 l 1
 460 570 l 1
 556 621 l 1
EndSplineSet
EndChar

StartChar: T
Encoding: 84 84 19
Width: 502
Flags: HW
LayerCount: 2
Fore
SplineSet
22 615 m 1
 24 731 l 5
 486 733 l 1
 478 603 l 1
 283 609 l 1
 313 24 l 1
 196 30 l 1
 190 612 l 1
 22 615 l 1
EndSplineSet
EndChar

StartChar: U
Encoding: 85 85 20
Width: 571
Flags: HW
LayerCount: 2
Fore
SplineSet
28 744 m 1
 121 738 l 1
 -58.57421875 -29.7392578125 514.694335938 -74.03515625 430 702 c 1
 774.291992188 800.682617188 308.72265625 -518.106445312 22 231 c 0
 -39.5517578125 391.814453125 28 744 28 744 c 1
EndSplineSet
EndChar

StartChar: V
Encoding: 86 86 21
Width: 550
Flags: HW
LayerCount: 2
Fore
SplineSet
-2 705 m 1
 265 36 l 1
 565 666 l 1
 391 696 l 1
 274 219 l 1
 160 699 l 1
 -2 705 l 1
EndSplineSet
EndChar

StartChar: W
Encoding: 87 87 22
Width: 568
Flags: HW
LayerCount: 2
Fore
SplineSet
55 660 m 1
 -53 621 l 1
 175 114 l 1
 304 303 l 1
 496 105 l 1
 574 636 l 1
 460 639 l 1
 448 279 l 1
 304 438 l 1
 169 303 l 1
 176.12109375 289.240234375 107.095703125 559.340820312 55 660 c 1
EndSplineSet
EndChar

StartChar: X
Encoding: 88 88 23
Width: 426
Flags: HW
LayerCount: 2
Fore
SplineSet
102 735 m 1
 10 711 l 1
 160 375 l 1
 -28 71 l 1
 50 45 l 1
 218 313 l 1
 333 54 l 1
 435 48 l 1
 264 363 l 1
 426 702 l 1
 360 753 l 1
 220 453 l 1
 102 735 l 1
EndSplineSet
EndChar

StartChar: Y
Encoding: 89 89 24
Width: 394
Flags: HW
LayerCount: 2
Fore
SplineSet
-35 684 m 1
 37 759 l 1
 199 567 l 1
 331 756 l 1
 316.55859375 759.758789062 344.754882812 745.721679688 409 729 c 1
 241 471 l 1
 256 81 l 1
 157 75 l 1
 148 480 l 1
 -35 684 l 1
EndSplineSet
EndChar

StartChar: Z
Encoding: 90 90 25
Width: 498
Flags: HW
LayerCount: 2
Fore
SplineSet
-12 644 m 1
 28 722 l 1
 454 692 l 1
 448 596 l 1
 105 213 l 1
 496 236 l 1
 456 144 l 1
 22 146 l 1
 32 270 l 1
 378 627 l 1
 -12 644 l 1
EndSplineSet
EndChar

StartChar: zero
Encoding: 48 48 26
Width: 463
Flags: HW
LayerCount: 2
Fore
SplineSet
76 534 m 1
 160 624 l 1
 289 624 l 1
 349 519 l 1
 355 252 l 1
 301 144 l 1
 139 129 l 1
 82 240 l 1
 76 534 l 1
139 699 m 1
 -2 561 l 1
 4 216 l 1
 103 60 l 1
 334 66 l 1
 430 192 l 1
 433 540 l 1
 322 699 l 1
 139 699 l 1
EndSplineSet
EndChar

StartChar: one
Encoding: 49 49 27
Width: 298
Flags: HW
LayerCount: 2
Fore
SplineSet
46 573 m 1
 193 705 l 1
 206.84765625 153.85546875 l 1
 289 153 l 1
 286 75 l 1
 -8 78 l 1
 1 156 l 1
 116.228515625 154.799804688 l 1
 157 588 l 1
 118 552 l 1
 46 573 l 1
EndSplineSet
EndChar

StartChar: two
Encoding: 50 50 28
Width: 502
Flags: HW
LayerCount: 2
Fore
SplineSet
124 537 m 24
 115 498 206.3125 507.591796875 199 468 c 0
 169.465820312 308.09765625 -158.235351562 608.19921875 229 684 c 0
 320.590820312 701.928710938 427.703125 346.852539062 409 321 c 0
 268.942382812 127.404296875 107.729492188 180.958984375 85 156 c 1
 463 162 l 1
 484 93 l 1
 22 105 l 1
 10.4501953125 285.549804688 81.2490234375 233.750976562 214 270 c 1
 214 270 314 300 316 351 c 24
 321 452 301 524 229 594 c 24
 196 626 135 582 124 537 c 24
EndSplineSet
EndChar

StartChar: three
Encoding: 51 51 29
Width: 484
Flags: HW
LayerCount: 2
Fore
SplineSet
133 573 m 1
 367 597 l 1
 205 411 l 1
 349 288 l 1
 262 150 l 1
 85 207 l 1
 145 294 l 1
 82 330 l 1
 4 177 l 1
 274 75 l 1
 415 291 l 1
 304 423 l 1
 475 648 l 1
 121 651 l 1
 133 573 l 1
EndSplineSet
EndChar

StartChar: four
Encoding: 52 52 30
Width: 343
Flags: HW
LayerCount: 2
Fore
SplineSet
118 735 m 1
 -2 447 l 1
 250 417 l 1
 238 33 l 1
 301 30 l 1
 313 555 l 1
 274 552 l 1
 256 474 l 1
 64 486 l 1
 190 711 l 5
 118 735 l 1
EndSplineSet
EndChar

StartChar: five
Encoding: 53 53 31
Width: 505
Flags: HW
LayerCount: 2
Fore
SplineSet
427 735 m 1
 136 759 l 1
 46 444 l 1
 228.3828125 450.3828125 253.37109375 469.572265625 394 378 c 0
 437 350 372.91796875 216.151367188 295 177 c 0
 -32.4453125 12.466796875 118.831054688 280.866210938 94 270 c 1
 31 276 l 1
 31 276 8.892578125 194.00390625 7 141 c 0
 6 113 73 57 160 60 c 0
 214.67578125 61.8857421875 377.674804688 102.5859375 445 213 c 0
 495 295 510.37109375 417.07421875 421 459 c 0
 293 519.047851562 279.97265625 517.765625 112 507 c 1
 166 687 l 1
 421 654 l 1
 427 735 l 1
EndSplineSet
EndChar

StartChar: six
Encoding: 54 54 32
Width: 568
Flags: HW
LayerCount: 2
Fore
SplineSet
313 303 m 0
 407.671875 326.100585938 476.538085938 292.194335938 442 183 c 0
 419.90625 113.1484375 311.313476562 89.8935546875 226 150 c 24
 159.880859375 197.60546875 250.430664062 287.732421875 313 303 c 0
505 711 m 1
 505 711 243.822265625 746.1953125 136 648 c 0
 24 546 -8 423 25 276 c 0
 43.8388671875 192.083007812 82 171 151 108 c 0
 232.340820312 33.732421875 324.94140625 44.2353515625 436 72 c 0
 496 87 531 131 541 192 c 24
 551 255 529.823242188 304.751953125 478 342 c 0
 414 388 348.904296875 392.708007812 265 381 c 0
 222 375 157 222 157 222 c 1
 58.2099609375 268.9609375 112.390625 506.142578125 181 579 c 0
 266.340820312 669.625976562 499 603 499 603 c 1
 505 711 l 1
EndSplineSet
EndChar

StartChar: seven
Encoding: 55 55 33
Width: 406
Flags: HW
LayerCount: 2
Fore
SplineSet
1 690 m 1
 25 582 l 1
 319 624 l 1
 37 84 l 1
 121 60 l 1
 403 678 l 1
 1 690 l 1
EndSplineSet
EndChar

StartChar: eight
Encoding: 56 56 34
Width: 349
Flags: HW
LayerCount: 2
Fore
SplineSet
238 336 m 1
 181 408 l 1
 91 375 l 1
 88 288 l 1
 136 243 l 1
 214 240 l 1
 238 282 l 1
 238 336 l 1
178 477 m 1
 250 513 l 5
 235 618 l 1
 136 642 l 1
 82 570 l 1
 115 510 l 1
 178 477 l 1
112 432 m 1
 22 540 l 1
 28 624 l 1
 88 699 l 1
 208 687 l 1
 295 618 l 1
 319 498 l 1
 238 429 l 1
 313 363 l 1
 316 276 l 1
 256 183 l 1
 100 189 l 1
 10 303 l 1
 25 408 l 1
 112 432 l 1
EndSplineSet
EndChar

StartChar: nine
Encoding: 57 57 35
Width: 493
Flags: HW
LayerCount: 2
Fore
SplineSet
337 546 m 0
 364.419921875 573.002929688 364 645 364 645 c 1
 364 645 266 670 226 666 c 0
 186 662 130 627 130 627 c 1
 125.168945312 521.463867188 177.829101562 389.25 337 546 c 0
397 501 m 1
 398.208984375 479.985351562 175.109375 319.833984375 82 483 c 0
 48.046875 542.5 30 600 67 657 c 24
 109 721 247 735 247 735 c 25
 247 735 357.401367188 728.50390625 409 687 c 0
 455 650 478 552 478 552 c 1
 485.883789062 271.116210938 378.284179688 66.037109375 172 108 c 0
 71.3427734375 128.475585938 11.0283203125 176.895507812 1 234 c 0
 -6.509765625 276.76171875 112 276 112 276 c 1
 112 276 128.057617188 184.548828125 169 180 c 0
 232 173 284 205 334 255 c 0
 370 291 388 360 388 360 c 1
 397 501 l 1
EndSplineSet
EndChar

StartChar: exclam
Encoding: 33 33 36
Width: 268
Flags: HW
LayerCount: 2
Fore
SplineSet
73 99 m 1
 139 111 l 1
 127 51 l 1
 82 51 l 1
 73 99 l 1
106 135 m 1
 106 135 -86.5361328125 557.2265625 67 666 c 0
 102.998046875 691.502929688 337 783 232 669 c 0
 108.5390625 534.95703125 106 135 106 135 c 1
EndSplineSet
EndChar

StartChar: comma
Encoding: 44 44 37
Width: 220
Flags: HW
LayerCount: 2
Fore
SplineSet
139 183 m 1
 61 162 l 1
 61 162 45.8115234375 197.178710938 61 213 c 0
 85 238 148 231 148 231 c 1
 148 231 202.05078125 210.979492188 193 189 c 0
 172 138 52 87 52 87 c 1
 139 183 l 1
EndSplineSet
EndChar

StartChar: period
Encoding: 46 46 38
Width: 148
Flags: HW
LayerCount: 2
Fore
SplineSet
49 33 m 0
 85 18 177.018554688 72.8505859375 133 111 c 0
 88 150 -59.3125 78.130859375 49 33 c 0
EndSplineSet
EndChar

StartChar: hyphen
Encoding: 45 45 39
Width: 196
Flags: HW
LayerCount: 2
Fore
SplineSet
19 477 m 1
 190 474 l 1
 184 429 l 1
 7 432 l 1
 19 477 l 1
EndSplineSet
EndChar

StartChar: a
Encoding: 97 97 40
Width: 350
Flags: HW
LayerCount: 2
Fore
SplineSet
227 222 m 1
 233 261 l 1
 231.032226562 258.399414062 134.747070312 317.34375 74 264 c 0
 -15.4091796875 185.487304688 198.127929688 125.237304688 227 222 c 1
227 291 m 1
 230 399 l 1
 230 399 101 437 53 477 c 0
 34.4990234375 492.41796875 65 516 65 516 c 1
 65 516 195 503 254 459 c 0
 292.958984375 429.9453125 287 417 293 369 c 0
 299.739257812 315.086914062 293 237 293 237 c 1
 422 153 266 132.02734375 269 192 c 1
 285.005859375 127.303710938 -142 81 32 315 c 0
 83.9169921875 384.819335938 227 291 227 291 c 1
EndSplineSet
EndChar

StartChar: b
Encoding: 98 98 41
Width: 352
Flags: HW
LayerCount: 2
Fore
SplineSet
94 303 m 0
 109.077148438 380.939453125 319.840820312 378.923828125 292 249 c 24
 285 214 272.35546875 205.940429688 238 195 c 0
 101.9921875 151.688476562 80.6376953125 233.926757812 94 303 c 0
4 663 m 1
 19 213 l 1
 19 213 139.833984375 102.418945312 214 131.620117188 c 0
 281 158 347.762695312 188.984375 343 264 c 0
 339 327 325.859375 375.502929688 265 393 c 0
 185 416 64 354 64 354 c 1
 64 645 l 1
 4 663 l 1
EndSplineSet
EndChar

StartChar: c
Encoding: 99 99 42
Width: 262
Flags: HW
LayerCount: 2
Fore
SplineSet
229 333 m 1
 229 333 179.93133351 447.993593295 145 423 c 0
 61 362.897460938 -1.2353515625 282.708007812 0 258 c 0
 3 198 87.227000898 92.4343002567 199 131.7421875 c 0
 242 146.864257812 265 210 265 210 c 1
 235 234 l 1
 235 234 206.120139884 180.695253693 181 171 c 0
 101.732421875 140.40625 82 177 64 246 c 4
 55.068359375 280.23828125 102.244092718 341.640695018 151 375 c 0
 170 388 184 339 184 339 c 1
 229 333 l 1
EndSplineSet
EndChar

StartChar: d
Encoding: 100 100 43
Width: 253
Flags: HW
LayerCount: 2
Fore
SplineSet
100 309 m 1
 329.067382812 282.05078125 85 78 61 249 c 0
 57.34375 275.05078125 100 309 100 309 c 1
169 675 m 1
 178 336 l 1
 178 336 105.140625 384.735351562 64 363 c 0
 11 334.999023438 4 231 4 231 c 0
 4 173.920898438 127 131.3515625 127 131.3515625 c 0
 127 131.3515625 227.657226562 130.293945312 232 131.823242188 c 1
 217 726 l 1
 169 675 l 1
EndSplineSet
EndChar

StartChar: e
Encoding: 101 101 44
Width: 268
Flags: HW
LayerCount: 2
Fore
SplineSet
202 336 m 0
 159 306 67 345 67 345 c 1
 67 345 105 404 142 402 c 24
 177 400 229.076171875 354.890625 202 336 c 0
70 309 m 1
 70 309 179 263 229 300 c 24
 268 328 259.083007812 388.079101562 226 423 c 0
 190 461 96.1849243541 454.814537053 46 405 c 4
 -5.66061995258 353.720658645 -54.7116145218 230.060953777 25 195 c 4
 88.4321545032 167.099525893 285.857421875 93.5126953125 256 201 c 1
 177.28125 182.368164062 121 182 52 222 c 24
 22 239 70 309 70 309 c 1
EndSplineSet
EndChar

StartChar: f
Encoding: 102 102 45
Width: 205
Flags: HW
LayerCount: 2
Fore
SplineSet
169 579 m 0
 204 573 190 627 190 627 c 1
 190 627 157.517578125 720.659179688 100 738 c 0
 -59.2421875 786.009765625 34.1416015625 103.260742188 7 60 c 1
 49 60 l 1
 50.58984375 46.3720703125 65.25390625 329.077148438 52 442.673828125 c 1
 169 441.612304688 l 1
 133 492 l 25
 64 495 l 1
 64 495 43.9658203125 567.005859375 52 612 c 0
 57 640 73 667 100 690 c 0
 100 690 123.139648438 586.861328125 169 579 c 0
EndSplineSet
EndChar

StartChar: g
Encoding: 103 103 46
Width: 319
Flags: HW
LayerCount: 2
Fore
SplineSet
247 363 m 1
 247 363 253 288 223 255 c 24
 152.181640625 176.727539062 66.4296875 292.6328125 112 342 c 0
 148 381 247 363 247 363 c 1
136 183 m 0
 159.330078125 159.682617188 217 207 217 207 c 1
 211 131.377929688 l 1
 211 131.377929688 9.9599609375 118.8125 -17 30 c 1
 3.013671875 -26.986328125 46.7158203125 -60.2841796875 112 -72 c 1
 226 -78 l 1
 286.650390625 273.219726562 250.86328125 208.021484375 313 411 c 1
 201.87109375 424.217773438 -79.0859375 397.962890625 136 183 c 0
49 57 m 5
 379 180 73 -201 49 57 c 5
EndSplineSet
EndChar

StartChar: h
Encoding: 104 104 47
Width: 313
Flags: HW
LayerCount: 2
Fore
SplineSet
10 693 m 1
 4 130.52734375 l 1
 49 130.729492188 l 1
 49 130.729492188 64.5048828125 263.276367188 100 339 c 0
 142.256835938 429.1484375 240.362304688 381.826171875 253 306 c 24
 263 239 241 131.594726562 241 131.594726562 c 25
 295 131.837890625 l 25
 304 339 l 25
 304 339 282.8515625 395.833984375 256 420 c 0
 226 447 155.866210938 455.334960938 118 442.919921875 c 0
 57 422.919921875 64 360 64 360 c 1
 67 693 l 1
 10 693 l 1
EndSplineSet
EndChar

StartChar: i
Encoding: 105 105 48
Width: 109
Flags: W
LayerCount: 2
Fore
SplineSet
22 443.135742188 m 24
 4 424 28 375 28 375 c 1
 28 375 70 366 76 372 c 24
 97 395 102.16015625 414.0625 91 442.509765625 c 0
 81 468 40 463 22 443.135742188 c 24
22 321 m 1
 19 129.770507812 l 1
 49.9150390625 138.345703125 73.984375 136.370117188 97 132.76953125 c 1
 82 318 l 1
 62 298.739257812 42 281.109375 22 321 c 1
EndSplineSet
EndChar

StartChar: j
Encoding: 106 106 49
Width: 253
Flags: W
HStem: 279 42<5 136.5> 357 114<97.4274 198.353>
LayerCount: 2
Fore
SplineSet
79 443.135742188 m 0
 62 421.135742188 100.078125 360.637695312 127 357 c 0
 164 352 195.043945312 357.202148438 217 387 c 0
 231 406 202.043945312 466.3515625 163 471 c 0
 121 476 108.228515625 480.9609375 79 443.135742188 c 0
7 321 m 1
 229 309 l 1
 229 309 261 62 199 -75 c 24
 174 -130 96.9501953125 -125.080078125 46 -93 c 0
 -8 -59 7 84 7 84 c 1
 64 84 l 1
 64 84 34 -9 70 -42 c 0
 94 -64 140 -57 151 -27 c 24
 191 82 184 270 184 270 c 1
 -5 279 l 1
 7 321 l 1
EndSplineSet
EndChar

StartChar: k
Encoding: 107 107 50
Width: 181
Flags: HW
LayerCount: 2
Fore
SplineSet
1 636 m 1
 13 130.418945312 l 1
 49 130.581054688 l 1
 46 252 l 1
 145 131.013671875 l 1
 169 171 l 1
 79 291 l 1
 172 420 l 1
 121 426 l 1
 46 330 l 5
 52 627 l 1
 1 636 l 1
EndSplineSet
EndChar

StartChar: l
Encoding: 108 108 51
Width: 172
Flags: HW
LayerCount: 2
Fore
SplineSet
37 636 m 1
 32.8974609375 638.182617188 5.5234375 316.522460938 13 161.040039062 c 0
 18.9365234375 37.58984375 154.578125 202.92578125 160 216 c 1
 100 207 l 1
 98.2978515625 203.596679688 60.96875 145.120117188 58 195 c 0
 48 363 79 627 79 627 c 1
 37 636 l 1
EndSplineSet
EndChar

StartChar: m
Encoding: 109 109 52
Width: 400
Flags: HW
LayerCount: 2
Fore
SplineSet
-13 361 m 5
 -13 361 30.1220748409 409.082190331 55 372 c 0
 108 293 62.10546875 160.456054688 88 130.622070312 c 0
 107.327148438 108.354492188 113.528320312 360.959960938 181 339 c 1
 223.06640625 316.473632812 184.728515625 132.89453125 223 131.229492188 c 0
 275.0078125 128.967773438 251.603515625 334.966796875 283 348 c 0
 366.123046875 382.505859375 326.120117188 74.7216796875 361 131.8515625 c 0
 460 294 309.96484375 443.387695312 283 441.994140625 c 0
 244.401367188 439.999023438 212.688476562 312.529296875 232 375 c 0
 239.924804688 400.635742188 222.987304688 454.061523438 169 443.028320312 c 0
 106.16015625 430.185546875 115.857421875 343.9375 115 369 c 0
 115 369 129.055530431 424.165616226 70 443.924804688 c 0
 10 464 -13 361 -13 361 c 5
EndSplineSet
EndChar

StartChar: n
Encoding: 110 110 53
Width: 229
Flags: HW
LayerCount: 2
Fore
SplineSet
-2 378 m 1
 31 396 l 1
 70.4169921875 396 34.416015625 176 70 153 c 0
 144.348632812 104.944335938 41 370 130 372 c 24
 218 374 163.350585938 75.234375 199 156 c 0
 246.802734375 264.30078125 223.684570312 464.81640625 142 443.108398438 c 0
 109.262695312 434.408203125 88 375 88 375 c 1
 88 375 68.951171875 454.15625 37 444.061523438 c 0
 -17 427 -2 378 -2 378 c 1
EndSplineSet
EndChar

StartChar: o
Encoding: 111 111 54
Width: 252
Flags: W
LayerCount: 2
Fore
SplineSet
96 366 m 24
 142.737304688 378.892578125 196.416992188 289.1796875 174 234 c 24
 161 202 134 170 102 183 c 24
 18.28125 217.248046875 15.3564453125 343.598632812 96 366 c 24
96 413.999023438 m 0
 -217 315 249.11328125 -115.759765625 234 303 c 0
 232.953125 331.998046875 162.393554688 434.999023438 96 413.999023438 c 0
EndSplineSet
EndChar

StartChar: p
Encoding: 112 112 55
Width: 241
Flags: HW
LayerCount: 2
Fore
SplineSet
121 183 m 0
 184 228 186.694335938 276.380859375 118 312 c 0
 91 326 40 258 40 258 c 1
 47.3251953125 238.689453125 66.4052734375 144.00390625 121 183 c 0
-2 21 m 1
 16.2255859375 123 12.9404296875 225 22 327 c 1
 22 327 89.7939453125 374.555664062 154 345 c 0
 217 316 263.081054688 258.201171875 217 207 c 0
 190 177 123.479492188 105.201171875 85 130.932617188 c 0
 52 153 46 130.755859375 46 130.755859375 c 1
 55 15 l 1
 -2 21 l 1
EndSplineSet
EndChar

StartChar: q
Encoding: 113 113 56
Width: 298
Flags: HW
LayerCount: 2
Fore
SplineSet
46 156 m 0
 60 134 139 207 139 207 c 1
 142 291 l 1
 142 291 69.9375 305.065429688 49 285 c 0
 25 262 28.578125 183.376953125 46 156 c 0
112 336 m 0
 133.006835938 339.963867188 178 312 178 312 c 1
 190 33 l 1
 283 87 l 1
 307 72 l 1
 169 -21 l 1
 157 174 l 1
 103 131.053710938 l 1
 103 131.053710938 37 104 19 130.674804688 c 24
 -13 178 -21 239 4 276 c 0
 33.814453125 320.125976562 59 326 112 336 c 0
EndSplineSet
EndChar

StartChar: r
Encoding: 114 114 57
Width: 256
Flags: HW
LayerCount: 2
Fore
SplineSet
1 444.5234375 m 1
 4 130.256835938 l 1
 49 130.458984375 l 1
 64 357 l 1
 115 393 l 1
 216.435546875 424.619140625 232.622070312 270.583007812 157 330 c 25
 115.319335938 317.005859375 105.849609375 290.20703125 130 249 c 1
 317.423828125 265.537109375 289.758789062 545.724609375 34 414 c 25
 46 471 l 25
 1 444.5234375 l 1
EndSplineSet
EndChar

StartChar: s
Encoding: 115 115 58
Width: 199
Flags: HW
LayerCount: 2
Fore
SplineSet
190 348 m 1
 74.3544921875 522.201171875 -29.7138671875 342.677734375 22 297 c 0
 67.5771484375 256.7421875 101.041015625 287.044921875 136 255 c 0
 160 233 161.6015625 230.260742188 136 209.999023438 c 0
 37.5595703125 132.088867188 52 243.000976562 16 210 c 0
 -42.4619140625 156.408203125 84.8515625 96.548828125 148 156 c 0
 292.647460938 292.178710938 67.9990234375 310.58984375 67 312 c 1
 4.349609375 442.255859375 135.653320312 372.061523438 190 348 c 1
EndSplineSet
EndChar

StartChar: t
Encoding: 116 116 59
Width: 160
Flags: HW
LayerCount: 2
Fore
SplineSet
94 168 m 1
 94 443.598632812 l 1
 154 443.0546875 l 1
 127 477 l 1
 91 477 l 1
 82 657 l 1
 40 660 l 1
 43 480 l 1
 4 483 l 1
 -14.6201171875 475.779296875 -29.853515625 467.413085938 -2 444.469726562 c 1
 34 444.142578125 l 1
 45.6875 347.829101562 9.4326171875 111.958984375 58 122.999023438 c 1
 57.876953125 123.056640625 256 165 94 168 c 1
EndSplineSet
EndChar

StartChar: u
Encoding: 117 117 60
Width: 278
Flags: HW
LayerCount: 2
Fore
SplineSet
32 444.55078125 m 25
 32 444.55078125 -13.53125 298.831054688 14 213 c 0
 57.5234375 77.3095703125 222.162109375 117.252929688 206 225 c 1
 257 131.2421875 l 1
 278 159 l 1
 239 249 l 1
 257 442.510742188 l 1
 200 443.026367188 l 1
 207.454101562 392.161132812 199.279296875 232.799804688 146 204 c 0
 109 184 95.876953125 199.91015625 71 234 c 0
 28.49609375 292.24609375 74.74609375 389.75390625 80 444.115234375 c 25
 32 444.55078125 l 25
EndSplineSet
EndChar

StartChar: v
Encoding: 118 118 61
Width: 256
Flags: HW
LayerCount: 2
Fore
SplineSet
-5 399 m 1
 127 130.8515625 l 1
 247 387 l 1
 181 390 l 1
 121 219 l 25
 67 405 l 25
 -5 399 l 1
EndSplineSet
EndChar

StartChar: w
Encoding: 119 119 62
Width: 385
Flags: HW
LayerCount: 2
Fore
SplineSet
-11 396 m 25
 100 130.743164062 l 25
 175 261 l 25
 217 131.270507812 l 25
 376 390 l 25
 280 402 l 25
 235 267 l 25
 175 351 l 25
 109 273 l 25
 46 384 l 25
 -11 396 l 25
EndSplineSet
EndChar

StartChar: x
Encoding: 120 120 63
Width: 280
Flags: W
HStem: 372 45<21.8142 79.4703>
LayerCount: 2
Fore
SplineSet
7 321 m 1
 7 321 16.9873046875 370.321289062 64 372 c 0
 92 373 76 288 76 288 c 1
 13 246 l 1
 37 198 l 1
 109 249 l 1
 109 249 100.525390625 145.6640625 136 96 c 0
 156 68 271 174 271 174 c 1
 226 204 l 1
 226 204 183 143 163 162 c 24
 126 196 148 276 148 276 c 1
 229 330 l 1
 205 384 l 1
 118 318 l 1
 118 318 126.0078125 416.369140625 85 417 c 0
 20 418 -8 387 -8 387 c 1
 7 321 l 1
EndSplineSet
EndChar

StartChar: y
Encoding: 121 121 64
Width: 253
Flags: HW
LayerCount: 2
Fore
SplineSet
49 357 m 1
 109 243 l 5
 -20 21 l 1
 19 0 l 1
 247 363 l 1
 205 363 l 1
 145 285 l 1
 94 384 l 1
 49 357 l 1
EndSplineSet
EndChar

StartChar: z
Encoding: 122 122 65
Width: 289
Flags: HW
LayerCount: 2
Fore
SplineSet
4 306 m 1
 139 330 l 1
 -8 130.486328125 l 1
 283 131.796875 l 1
 265 189 l 1
 112 180 l 1
 247 384 l 1
 -5 369 l 1
 4 306 l 1
EndSplineSet
EndChar

StartChar: t_t
Encoding: 256 -1 66
Width: 320
Flags: H
LayerCount: 2
Fore
SplineSet
94 168 m 1
 94 443.598632812 l 1
 194 444.142578125 l 1
 205.6875 347.829101562 169.432617188 111.958984375 218 122.999023438 c 1
 217.876953125 123.056640625 416 165 254 168 c 1
 254 443.598632812 l 1
 314 443.0546875 l 1
 287 477 l 1
 251 477 l 1
 242 657 l 1
 200 660 l 1
 203 480 l 1
 91 477 l 1
 82 657 l 1
 40 660 l 1
 43 480 l 1
 4 483 l 1
 -14.6201171875 475.779296875 0 464 -2 444.469726562 c 1
 34 444.142578125 l 1
 45.6875 347.829101562 9.4326171875 111.958984375 58 122.999023438 c 1
 57.876953125 123.056640625 256 165 94 168 c 1
EndSplineSet
LCarets2: 1 0
Ligature2: "'liga' Standard Ligatures in Latin lookup 0-1" t t
EndChar

StartChar: i_j
Encoding: 257 -1 67
Width: 362
Flags: H
LayerCount: 2
Fore
SplineSet
293 270 m 25
 92 272 l 25
 78 130.036036036 l 25
 14 129.747747748 l 25
 0 328 l 25
 338 309 l 1
 338 309 370 62 308 -75 c 0
 283 -130 205.950195312 -125.080078125 155 -93 c 0
 101 -59 116 84 116 84 c 1
 173 84 l 1
 173 84 143 -9 179 -42 c 0
 203 -64 249 -57 260 -27 c 0
 300 82 293 270 293 270 c 1025
22 443.135742188 m 0
 40 463 81 468 91 442.509765625 c 0
 102.16015625 414.0625 97 395 76 372 c 0
 70 366 28 375 28 375 c 1
 28 375 4 424 22 443.135742188 c 0
188 443.135742188 m 0
 217.228515625 480.9609375 230 476 272 471 c 0
 311.043945312 466.3515625 340 406 326 387 c 0
 304.043945312 357.202148438 273 352 236 357 c 0
 209.078125 360.637695312 171 421.135742188 188 443.135742188 c 0
EndSplineSet
LCarets2: 1 116
Ligature2: "'liga' Standard Ligatures in Latin lookup 0-1" i j
EndChar
